HIERARCHY
ROOT Hips
{
OFFSET -0.1795 -22.3333 2.8219000000000003
	CHANNELS 6 Xposition Yposition Zposition Zrotation Yrotation Xrotation 
	JOINT LeftUpLeg
	{
OFFSET 6.952 -9.140600000000001 -0.6815
		CHANNELS 3 Zrotation Yrotation Xrotation
		JOINT LeftLeg
		{
OFFSET 3.4277 -37.5199 -0.4496
			CHANNELS 3 Zrotation Yrotation Xrotation
			JOINT LeftFoot
			{
OFFSET -1.3596000000000001 -39.7961 -4.3693
				CHANNELS 3 Zrotation Yrotation Xrotation
				JOINT LeftToe
				{
OFFSET 2.6358 -5.5791 11.9288
					CHANNELS 3 Zrotation Yrotation Xrotation
					End Site
					{
OFFSET 0.0 0.0 0.0
					}
				}
			}
		}
	}
	JOINT RightUpLeg
	{
OFFSET -6.7669999999999995 -9.052200000000001 -0.432
		CHANNELS 3 Zrotation Yrotation Xrotation
		JOINT RightLeg
		{
OFFSET -3.8289999999999997 -38.2569 -0.885
			CHANNELS 3 Zrotation Yrotation Xrotation
			JOINT RightFoot
			{
OFFSET 1.5774 -39.8415 -4.2312
				CHANNELS 3 Zrotation Yrotation Xrotation
				JOINT RightToe
				{
OFFSET -2.5372 -4.8144 12.3348
					CHANNELS 3 Zrotation Yrotation Xrotation
					End Site
					{
OFFSET 0.0 0.0 0.0
					}
				}
			}
		}
	}
	JOINT Spine
	{
OFFSET -0.2533 10.8963 -2.6696
		CHANNELS 3 Zrotation Yrotation Xrotation
		JOINT Spine1
		{
OFFSET 0.5487 13.517999999999999 0.1092
			CHANNELS 3 Zrotation Yrotation Xrotation
			JOINT Spine2
			{
OFFSET 0.1457 5.292199999999999 2.5425
				CHANNELS 3 Zrotation Yrotation Xrotation
				JOINT Neck
				{
OFFSET -0.2778 21.387 -4.2857
					CHANNELS 3 Zrotation Yrotation Xrotation
					JOINT Head
					{
OFFSET 0.5152 6.497 5.1349
						CHANNELS 3 Zrotation Yrotation Xrotation
						End Site
						{
OFFSET 0.0 0.0 0.0
						}
					}
				}
				JOINT LeftShoulder
				{
OFFSET 7.8845 12.1749 -3.4090000000000003
					CHANNELS 3 Zrotation Yrotation Xrotation
					JOINT LeftArm
					{
OFFSET 9.0977 3.0469 -0.8867999999999999
						CHANNELS 3 Zrotation Yrotation Xrotation
						JOINT LeftForeArm
						{
OFFSET 25.9612 -1.2772000000000001 -2.7456
							CHANNELS 3 Zrotation Yrotation Xrotation
							JOINT LeftHand
							{
OFFSET 24.9234 0.8986 -0.1171
								CHANNELS 3 Zrotation Yrotation Xrotation
								End Site
								{
OFFSET 0.0 0.0 0.0
								}
							}
						}
					}
				}
				JOINT RightShoulder
				{
OFFSET -8.1759 11.8833 -3.8614999999999995
					CHANNELS 3 Zrotation Yrotation Xrotation
					JOINT RightArm
					{
OFFSET -9.6012 3.2550999999999997 -0.9143
						CHANNELS 3 Zrotation Yrotation Xrotation
						JOINT RightForeArm
						{
OFFSET -25.374200000000002 -1.3329 -2.1401
							CHANNELS 3 Zrotation Yrotation Xrotation
							JOINT RightHand
							{
OFFSET -25.5298 0.7772 -0.5559
								CHANNELS 3 Zrotation Yrotation Xrotation
								End Site
								{
OFFSET 0.0 0.0 0.0
								}
							}
						}
					}
				}
			}
		}
	}
}
MOTION
Frames: 18
Frame Time: 0.050000
0.0 95.3673 0.0 -0.523261 -1.360081 5.254384 0.685660 -0.189162 -2.007093 1.187405 -0.244735 2.626801 -2.224620 -2.906545 3.605279 0.000000 0.000000 0.000000 -0.424870 0.028021 -0.128261 -0.576833 0.210939 3.346450 0.739071 0.264769 2.916604 0.000000 0.000000 0.000000 1.180145 0.122816 -2.967719 -1.280023 0.614786 -0.886896 0.580220 1.164142 6.919398 2.889738 -0.560025 -16.472823 0.000000 0.000000 0.000000 -18.405799 2.652107 -3.186637 -45.873449 0.852426 -5.823611 -98.236475 -57.867447 69.213186 0.000000 0.000000 0.000000 17.064906 -2.520495 -2.771482 53.677996 0.555088 -5.120891 78.120803 59.974807 52.814006 0.000000 0.000000 0.000000
-0.0046 95.2954 0.1482 -0.782558 -0.810262 5.875799 1.032020 -0.186753 -1.931699 0.778785 -0.155450 1.757398 -2.367130 -3.826071 2.337746 0.000000 0.000000 0.000000 -0.121200 -0.023980 0.283779 -0.522521 0.116399 1.418229 0.357404 0.261093 1.199520 0.000000 0.000000 0.000000 0.645122 0.176143 -4.129616 -1.738871 0.820510 0.074638 1.463498 0.830363 6.777271 2.588253 -0.263871 -17.918704 0.000000 0.000000 0.000000 -18.537511 4.616670 -4.204799 -45.620645 1.056745 -5.850968 -103.776843 -55.688753 72.251173 0.000000 0.000000 0.000000 16.031801 -4.158005 -3.526038 53.622970 0.105074 -5.283320 85.384889 58.769118 57.463237 0.000000 0.000000 0.000000
0.0015999999999999999 95.272 0.27499999999999997 -0.496404 -1.086340 6.048202 0.536522 -0.166103 -1.738684 1.485470 -0.240294 1.690700 -3.208733 -5.968682 1.660646 0.000000 0.000000 0.000000 -0.464050 0.040659 -0.235985 -0.425185 0.119928 1.752000 -0.638574 -1.719623 0.184779 0.000000 0.000000 0.000000 0.335950 0.190049 -4.470048 -0.693706 0.352057 -1.408936 0.216727 1.273132 7.852147 3.403156 -0.864122 -16.335834 0.000000 0.000000 0.000000 -17.534855 5.842681 -4.776407 -46.519453 0.413536 -5.806535 -102.995682 -55.288824 70.847653 0.000000 0.000000 0.000000 17.552001 -3.030150 -3.001084 52.884708 1.217718 -4.849945 82.302539 59.825483 56.347153 0.000000 0.000000 0.000000
-0.00019999999999999998 95.282 0.3585 -0.398937 -0.430279 6.497758 0.452806 -0.210854 -2.263115 1.544500 -0.277524 2.352049 -3.693864 -7.159492 1.365351 0.000000 0.000000 0.000000 -0.460648 0.017597 0.010068 -0.251288 0.107417 1.946258 -0.883730 -1.869389 -0.804623 0.000000 0.000000 0.000000 -0.247706 0.215711 -5.309351 -0.770042 0.374101 -0.592331 0.798083 0.489567 7.560375 3.459178 -1.020631 -15.670905 0.000000 0.000000 0.000000 -18.026808 7.086106 -5.409588 -46.730367 0.319894 -5.784294 -104.677080 -55.070575 72.538780 0.000000 0.000000 0.000000 16.890065 -3.043199 -3.048732 53.098678 1.698099 -4.611820 88.362165 60.448579 61.892113 0.000000 0.000000 0.000000
0.012799999999999999 95.2954 0.42669999999999997 -0.363464 -0.218357 6.549968 0.075523 -0.218817 -2.391035 2.018506 -0.354412 2.669735 -3.531364 -7.145623 0.821619 0.000000 0.000000 0.000000 -0.284496 -0.024780 0.369973 -0.693628 0.131111 1.309275 -0.862717 -1.894722 -0.646876 0.000000 0.000000 0.000000 -0.242730 0.219120 -5.421190 -0.801706 0.389291 -0.619741 0.697142 0.643409 7.546081 3.352867 -0.929127 -15.633674 0.000000 0.000000 0.000000 -17.300139 7.004490 -5.293447 -47.581308 -0.217251 -5.686013 -104.968433 -55.480660 73.185774 0.000000 0.000000 0.000000 16.299351 -3.085864 -2.935788 53.805933 2.603639 -4.279928 88.554927 60.455401 62.254790 0.000000 0.000000 0.000000
0.0322 95.3146 0.4994 -0.592422 -0.089846 6.798016 0.036274 -0.220954 -2.422426 1.963348 -0.339739 2.534733 -3.575504 -7.424238 0.530342 0.000000 0.000000 0.000000 0.041293 -0.080530 0.779381 -0.853274 0.119693 0.679961 -0.712384 -1.681500 -0.288588 0.000000 0.000000 0.000000 -0.111608 0.237085 -5.826408 -0.821031 0.397898 -0.608152 0.754335 0.735271 7.743895 3.187004 -0.794710 -15.807296 0.000000 0.000000 0.000000 -17.349949 7.495829 -5.584425 -47.994429 -0.613701 -5.592278 -105.565464 -55.642575 73.927236 0.000000 0.000000 0.000000 15.941751 -2.915709 -2.769963 54.263831 2.952408 -4.175609 90.288301 61.188551 64.714002 0.000000 0.000000 0.000000
0.059000000000000004 95.3166 0.5781 -0.495789 -0.186186 6.897380 -0.139620 -0.215580 -2.377123 2.045674 -0.333224 2.200691 -3.503139 -7.052821 0.872894 0.000000 0.000000 0.000000 -0.044043 -0.071155 0.727019 -0.853943 0.111315 0.504518 -0.755836 -1.708790 -0.461016 0.000000 0.000000 0.000000 -0.264496 0.232704 -5.771521 -0.831253 0.403838 -0.681665 0.714041 0.997975 7.878868 3.526553 -0.930959 -16.273999 0.000000 0.000000 0.000000 -17.195876 7.498805 -5.599517 -48.256156 -0.838987 -5.542666 -106.192760 -56.104739 75.010699 0.000000 0.000000 0.000000 15.932284 -3.489797 -3.012288 54.420012 3.034229 -4.165558 92.503244 61.048969 66.750993 0.000000 0.000000 0.000000
0.0782 95.309 0.6874 -0.439278 -0.207705 7.027113 -0.209781 -0.223005 -2.464351 1.976229 -0.323360 2.181689 -3.192206 -6.703974 0.354453 0.000000 0.000000 0.000000 0.049385 -0.050655 0.478311 -0.967019 0.131605 0.676946 -0.880410 -1.647299 -1.249071 0.000000 0.000000 0.000000 -0.213631 0.229483 -5.660804 -0.942394 0.458569 -0.890288 0.771000 0.811071 8.054591 3.292907 -0.809456 -16.317271 0.000000 0.000000 0.000000 -17.116175 7.903753 -5.747537 -48.460962 -1.259112 -5.427755 -107.188065 -56.184098 76.290772 0.000000 0.000000 0.000000 15.816592 -3.551393 -3.067655 54.309331 3.060534 -4.158784 94.857545 60.458447 68.196001 0.000000 0.000000 0.000000
0.0919 95.2835 0.8462000000000001 -0.445691 -0.099363 7.047678 -0.189675 -0.184314 -2.048642 1.995728 -0.277544 1.251483 -3.315933 -6.807623 0.616116 0.000000 0.000000 0.000000 0.065615 -0.046768 0.433116 -0.926403 0.135167 0.840484 -0.946567 -1.564798 -1.775033 0.000000 0.000000 0.000000 -0.320072 0.220382 -5.482752 -0.771978 0.375781 -0.659298 0.484059 0.795120 7.749813 3.229253 -0.754073 -16.322366 0.000000 0.000000 0.000000 -16.871890 8.083508 -5.818041 -48.410406 -1.220515 -5.405311 -108.508654 -56.180157 77.578978 0.000000 0.000000 0.000000 15.740628 -3.757505 -3.150960 54.673039 2.423676 -4.436753 97.242287 60.130715 70.116894 0.000000 0.000000 0.000000
0.0925 95.2211 1.0613 -0.276089 -0.130421 7.264765 -0.146892 -0.166674 -1.851562 1.855731 -0.246257 0.960371 -3.119918 -6.622908 0.229235 0.000000 0.000000 0.000000 -0.168358 -0.026356 0.337085 -0.847382 0.147440 1.289594 -1.020441 -1.434037 -2.427323 0.000000 0.000000 0.000000 -0.606796 0.221531 -5.611939 -0.819853 0.397662 -0.660471 0.475617 0.542518 7.914752 3.139130 -0.725647 -16.367472 0.000000 0.000000 0.000000 -16.660351 8.301731 -5.834919 -48.207431 -1.142612 -5.433367 -110.234983 -56.176779 79.593318 0.000000 0.000000 0.000000 15.672701 -3.799724 -3.212117 54.712715 2.329085 -4.493500 99.607448 59.270597 71.287144 0.000000 0.000000 0.000000
0.09920000000000001 95.14970000000001 1.3086 -0.210075 -0.228935 7.452403 -0.184022 -0.140070 -1.568451 1.752547 -0.214026 0.545653 -3.071728 -6.849636 -0.302516 0.000000 0.000000 0.000000 -0.290972 0.003424 0.091652 -0.736218 0.148769 1.594007 -1.050062 -1.202235 -3.025167 0.000000 0.000000 0.000000 -0.814174 0.226540 -5.812065 -0.896032 0.433113 -0.686785 0.431723 0.422102 8.157218 3.121509 -0.722718 -16.495695 0.000000 0.000000 0.000000 -16.737457 8.708809 -6.024464 -47.871955 -1.077200 -5.440934 -111.545866 -56.157563 81.106704 0.000000 0.000000 0.000000 15.800339 -3.788040 -3.248389 54.929106 2.002680 -4.679964 102.091908 58.435992 72.708806 0.000000 0.000000 0.000000
0.1325 95.0634 1.58 -0.133650 -0.025514 7.796820 -0.524513 -0.155910 -1.809598 2.060302 -0.276169 1.097841 -2.611987 -6.366976 -1.159122 0.000000 0.000000 0.000000 -0.219701 0.060492 -0.516588 -0.772997 0.196244 2.523860 -1.323351 -1.613279 -3.725056 0.000000 0.000000 0.000000 -1.017313 0.219138 -5.680410 -0.727360 0.353229 -0.603545 0.112087 0.477860 8.152149 3.446722 -0.879802 -16.642766 0.000000 0.000000 0.000000 -16.800532 8.785915 -6.121718 -47.577080 -0.779214 -5.506024 -113.366676 -56.383177 83.247369 0.000000 0.000000 0.000000 16.126601 -4.013669 -3.362253 54.725900 2.212917 -4.567101 104.002626 57.414831 73.570237 0.000000 0.000000 0.000000
0.1884 94.92660000000001 1.9248 0.049657 0.335551 8.012923 -0.836184 -0.244456 -2.782050 2.309966 -0.398777 2.832743 -1.765440 -5.255800 -2.447487 0.000000 0.000000 0.000000 -0.409763 0.123857 -1.087035 -0.455857 0.206095 3.676112 -1.635154 -1.984502 -4.798531 0.000000 0.000000 0.000000 -1.065884 0.210212 -5.458949 -0.726961 0.352479 -0.590976 -0.108702 0.818697 8.522981 3.601453 -0.920433 -16.606813 0.000000 0.000000 0.000000 -16.599342 8.695970 -6.138657 -47.821154 -0.511319 -5.650010 -114.568501 -56.579581 84.536329 0.000000 0.000000 0.000000 16.492948 -3.703245 -3.119487 54.564557 2.957707 -4.272028 104.785011 57.479672 74.898251 0.000000 0.000000 0.000000
0.2761 94.77879999999999 2.4126000000000003 0.111774 0.943172 8.463532 -1.023641 -0.357390 -3.967038 2.342106 -0.519129 4.935204 -1.166135 -4.422415 -3.310363 0.000000 0.000000 0.000000 -0.601904 0.195347 -1.753455 -0.530654 0.249149 4.465650 -2.032166 -3.207662 -4.769266 0.000000 0.000000 0.000000 -1.027820 0.193525 -4.957734 -0.660683 0.331377 -1.023370 -0.374227 1.128309 8.925995 3.991897 -1.035820 -17.056932 0.000000 0.000000 0.000000 -16.180032 8.757323 -6.205765 -48.336763 -0.603586 -5.691110 -115.338818 -56.738053 85.246123 0.000000 0.000000 0.000000 16.402262 -4.112489 -3.168684 54.647773 3.581300 -4.041139 105.544558 57.053443 75.721022 0.000000 0.000000 0.000000
0.4285 94.6288 3.1993 0.248624 1.644662 8.826141 -1.286946 -0.466886 -5.079275 2.269232 -0.622270 6.927082 -0.642832 -3.590400 -3.901020 0.000000 0.000000 0.000000 -0.740646 0.256369 -2.345384 -0.672059 0.303256 5.294041 -2.369115 -3.827489 -5.754477 0.000000 0.000000 0.000000 -0.903186 0.180872 -4.602629 -0.548269 0.286150 -1.240752 -0.540755 1.177311 9.456331 4.457647 -1.269653 -17.115836 0.000000 0.000000 0.000000 -15.912216 8.658041 -6.174851 -48.754995 -0.147405 -5.956421 -115.022340 -57.359133 85.418474 0.000000 0.000000 0.000000 15.940148 -3.457190 -2.670938 55.211025 4.349601 -3.780602 104.805599 58.375526 76.958882 0.000000 0.000000 0.000000
0.6783 94.46379999999999 4.4350000000000005 0.253623 2.829784 9.075178 -1.131272 -0.530806 -5.769371 1.939500 -0.729195 9.641509 -0.345112 -2.893454 -3.806272 0.000000 0.000000 0.000000 -0.617598 0.318729 -3.011647 -0.570331 0.365301 7.363970 -2.698946 -4.937349 -5.791239 0.000000 0.000000 0.000000 -0.939925 0.153288 -3.815922 -0.329930 0.193575 -1.395136 -0.594958 1.722792 9.502915 4.855923 -1.262212 -17.986781 0.000000 0.000000 0.000000 -14.833659 8.506893 -6.072893 -49.213111 0.263834 -6.168374 -113.054668 -57.025637 82.065120 0.000000 0.000000 0.000000 15.720071 -3.667722 -2.512664 55.426231 4.294513 -3.823003 102.855903 59.115123 76.666071 0.000000 0.000000 0.000000
1.0299 94.1597 6.1349 0.233910 3.363302 9.295224 -1.314753 -0.604358 -6.487059 1.843078 -0.874225 12.269472 0.285299 -2.211958 -5.095294 0.000000 0.000000 0.000000 -0.676929 0.350184 -3.323171 -0.606433 0.450730 9.578455 -2.980266 -5.438775 -6.892028 0.000000 0.000000 0.000000 -0.723389 0.138459 -3.417148 -0.399258 0.239021 -1.799338 -0.173938 2.355587 9.966302 4.801404 -0.988185 -19.136692 0.000000 0.000000 0.000000 -14.346994 8.856162 -6.266937 -49.371170 0.612075 -6.361449 -109.052232 -57.156171 77.415335 0.000000 0.000000 0.000000 14.474887 -3.469790 -2.135865 56.683087 4.421551 -3.827301 99.819747 61.113979 76.579268 0.000000 0.000000 0.000000
1.4662 93.5214 8.2414 0.367062 3.242785 8.969170 -1.900133 -0.633747 -6.642960 1.971158 -1.181029 16.645965 1.012713 -1.881703 -7.498632 0.000000 0.000000 0.000000 -0.690622 0.473416 -4.653938 -0.549780 0.650131 15.542595 -3.565310 -5.787543 -10.759223 0.000000 0.000000 0.000000 -0.623698 0.103554 -2.390525 -0.505652 0.295060 -2.064333 -0.259184 2.727262 10.032021 5.177134 -1.005100 -20.371678 0.000000 0.000000 0.000000 -14.101516 8.036505 -5.874311 -49.062959 2.276864 -6.959697 -106.700495 -57.645008 75.316030 0.000000 0.000000 0.000000 13.962241 -3.395363 -2.004948 56.977545 4.414809 -3.822648 96.271811 61.680463 73.894444 0.000000 0.000000 0.000000
